{
    "asset" : {
        "generator" : "Khronos glTF Blender I/O v3.3.27",
        "version" : "2.0"
    },
    "scene" : 0,
    "scenes" : [
        {
            "name" : "Scene",
            "nodes" : [
                0,
                1,
                4,
                6
            ]
        }
    ],
    "nodes" : [
        {
            "mesh" : 0,
            "name" : "PJH_GATESBY_600MM_BASIN_UNIT_WALL_HUNG_GREY_GLOSS_AR",
            "rotation" : [
                0,
                -0.7071068286895752,
                0,
                0.7071067094802856
            ]
        },
        {
            "mesh" : 1,
            "name" : "PJH_GATESBY_600MM_BASIN_UNIT_WALL_HUNG_GREY_GLOSS_AR.001",
            "rotation" : [
                0,
                -0.7071068286895752,
                0,
                0.7071067094802856
            ]
        },
        {
            "mesh" : 2,
            "name" : "PJH_GATESBY_600MM_BASIN_UNIT_WALL_HUNG_GREY_GLOSS_AR.004"
        },
        {
            "children" : [
                2
            ],
            "mesh" : 3,
            "name" : "PJH_GATESBY_600MM_BASIN_UNIT_WALL_HUNG_GREY_GLOSS_AR.006"
        },
        {
            "children" : [
                3
            ],
            "mesh" : 4,
            "name" : "Draw",
            "rotation" : [
                0,
                -0.7071068286895752,
                0,
                0.7071067094802856
            ]
        },
        {
            "mesh" : 5,
            "name" : "PJH_GATESBY_600MM_BASIN_UNIT_WALL_HUNG_GREY_GLOSS_AR.007",
            "scale" : [
                1,
                0.8876024484634399,
                1
            ],
            "translation" : [
                -0.0025415271520614624,
                0.26481327414512634,
                0
            ]
        },
        {
            "children" : [
                5
            ],
            "mesh" : 6,
            "name" : "Draw.001",
            "rotation" : [
                0,
                -0.7071068286895752,
                0,
                0.7071067094802856
            ]
        }
    ],
    "materials" : [
        {
            "doubleSided" : true,
            "name" : "PJH_GATESBY_600MM_BASIN_UNIT_WALL_HUNG_GREY_GLOSS_AR",
            "pbrMetallicRoughness" : {
                "baseColorFactor" : [
                    0.800000011920929,
                    0.800000011920929,
                    0.800000011920929,
                    1
                ],
                "metallicFactor" : 0,
                "roughnessFactor" : 0.5
            }
        },
        {
            "doubleSided" : true,
            "name" : "Material.001",
            "pbrMetallicRoughness" : {
                "baseColorFactor" : [
                    0.800000011920929,
                    0.800000011920929,
                    0.800000011920929,
                    1
                ],
                "roughnessFactor" : 0
            }
        },
        {
            "doubleSided" : true,
            "name" : "PJH_GATESBY_600MM_BASIN_UNIT_WALL_HUNG_GREY_GLOSS_AR.001",
            "pbrMetallicRoughness" : {
                "baseColorFactor" : [
                    0.800000011920929,
                    0.800000011920929,
                    0.800000011920929,
                    1
                ],
                "metallicFactor" : 0,
                "roughnessFactor" : 0.5
            }
        }
    ],
    "meshes" : [
        {
            "name" : "PJH_GATESBY_600MM_BASIN_UNIT_WALL_HUNG_GREY_GLOSS_AR",
            "primitives" : [
                {
                    "attributes" : {
                        "POSITION" : 0,
                        "TEXCOORD_0" : 1
                    },
                    "indices" : 2,
                    "material" : 0
                }
            ]
        },
        {
            "name" : "PJH_GATESBY_600MM_BASIN_UNIT_WALL_HUNG_GREY_GLOSS_AR.001",
            "primitives" : [
                {
                    "attributes" : {
                        "POSITION" : 3,
                        "TEXCOORD_0" : 4
                    },
                    "indices" : 5,
                    "material" : 0
                }
            ]
        },
        {
            "name" : "PJH_GATESBY_600MM_BASIN_UNIT_WALL_HUNG_GREY_GLOSS_AR.007",
            "primitives" : [
                {
                    "attributes" : {
                        "POSITION" : 6,
                        "TEXCOORD_0" : 7
                    },
                    "indices" : 8,
                    "material" : 0
                }
            ]
        },
        {
            "name" : "PJH_GATESBY_600MM_BASIN_UNIT_WALL_HUNG_GREY_GLOSS_AR.004",
            "primitives" : [
                {
                    "attributes" : {
                        "POSITION" : 9,
                        "TEXCOORD_0" : 10
                    },
                    "indices" : 11,
                    "material" : 0
                }
            ]
        },
        {
            "name" : "PJH_GATESBY_600MM_BASIN_UNIT_WALL_HUNG_GREY_GLOSS_AR.002",
            "primitives" : [
                {
                    "attributes" : {
                        "POSITION" : 12,
                        "TEXCOORD_0" : 13
                    },
                    "indices" : 14,
                    "material" : 1
                }
            ]
        },
        {
            "name" : "PJH_GATESBY_600MM_BASIN_UNIT_WALL_HUNG_GREY_GLOSS_AR.005",
            "primitives" : [
                {
                    "attributes" : {
                        "POSITION" : 15,
                        "TEXCOORD_0" : 16
                    },
                    "indices" : 17,
                    "material" : 2
                },
                {
                    "attributes" : {
                        "POSITION" : 18,
                        "TEXCOORD_0" : 19
                    },
                    "indices" : 20,
                    "material" : 0
                }
            ]
        },
        {
            "name" : "PJH_GATESBY_600MM_BASIN_UNIT_WALL_HUNG_GREY_GLOSS_AR.009",
            "primitives" : [
                {
                    "attributes" : {
                        "POSITION" : 21,
                        "TEXCOORD_0" : 22
                    },
                    "indices" : 14,
                    "material" : 1
                }
            ]
        }
    ],
    "accessors" : [
        {
            "bufferView" : 0,
            "componentType" : 5126,
            "count" : 1206,
            "max" : [
                0.20704466104507446,
                0.4978930652141571,
                0.30545574426651
            ],
            "min" : [
                -0.24167820811271667,
                -0.0005724143702536821,
                -0.29645973443984985
            ],
            "type" : "VEC3"
        },
        {
            "bufferView" : 1,
            "componentType" : 5126,
            "count" : 1206,
            "type" : "VEC2"
        },
        {
            "bufferView" : 2,
            "componentType" : 5123,
            "count" : 1212,
            "type" : "SCALAR"
        },
        {
            "bufferView" : 3,
            "componentType" : 5126,
            "count" : 23304,
            "max" : [
                0.22530335187911987,
                0.5154923796653748,
                0.30545574426651
            ],
            "min" : [
                -0.24855852127075195,
                0.3602295517921448,
                -0.30545574426651
            ],
            "type" : "VEC3"
        },
        {
            "bufferView" : 4,
            "componentType" : 5126,
            "count" : 23304,
            "type" : "VEC2"
        },
        {
            "bufferView" : 5,
            "componentType" : 5123,
            "count" : 23304,
            "type" : "SCALAR"
        },
        {
            "bufferView" : 6,
            "componentType" : 5126,
            "count" : 10773,
            "max" : [
                0.20340967178344727,
                0.17245711386203766,
                0.30508172512054443
            ],
            "min" : [
                -0.19350986182689667,
                -0.017669677734375,
                -0.29608574509620667
            ],
            "type" : "VEC3"
        },
        {
            "bufferView" : 7,
            "componentType" : 5126,
            "count" : 10773,
            "type" : "VEC2"
        },
        {
            "bufferView" : 8,
            "componentType" : 5123,
            "count" : 10773,
            "type" : "SCALAR"
        },
        {
            "bufferView" : 9,
            "componentType" : 5126,
            "count" : 5148,
            "max" : [
                0.21852077543735504,
                0.2625424861907959,
                0.3036434054374695
            ],
            "min" : [
                0.19235150516033173,
                -0.0005735587910749018,
                -0.2946473956108093
            ],
            "type" : "VEC3"
        },
        {
            "bufferView" : 10,
            "componentType" : 5126,
            "count" : 5148,
            "type" : "VEC2"
        },
        {
            "bufferView" : 11,
            "componentType" : 5123,
            "count" : 5148,
            "type" : "SCALAR"
        },
        {
            "bufferView" : 12,
            "componentType" : 5126,
            "count" : 1668,
            "max" : [
                0.24855852127075195,
                0.2078983187675476,
                0.18613378703594208
            ],
            "min" : [
                0.21849122643470764,
                0.19853755831718445,
                -0.17801904678344727
            ],
            "type" : "VEC3"
        },
        {
            "bufferView" : 13,
            "componentType" : 5126,
            "count" : 1668,
            "type" : "VEC2"
        },
        {
            "bufferView" : 14,
            "componentType" : 5123,
            "count" : 1668,
            "type" : "SCALAR"
        },
        {
            "bufferView" : 15,
            "componentType" : 5126,
            "count" : 4239,
            "max" : [
                0.21852077543735504,
                0.2625424861907959,
                0.29290443658828735
            ],
            "min" : [
                0.1964249163866043,
                -0.0005735587910749018,
                -0.2839083671569824
            ],
            "type" : "VEC3"
        },
        {
            "bufferView" : 16,
            "componentType" : 5126,
            "count" : 4239,
            "type" : "VEC2"
        },
        {
            "bufferView" : 17,
            "componentType" : 5123,
            "count" : 4239,
            "type" : "SCALAR"
        },
        {
            "bufferView" : 18,
            "componentType" : 5126,
            "count" : 13433,
            "max" : [
                0.20597316324710846,
                0.08445057272911072,
                0.27647411823272705
            ],
            "min" : [
                -0.1387186199426651,
                0.0005135238170623779,
                -0.2669380307197571
            ],
            "type" : "VEC3"
        },
        {
            "bufferView" : 19,
            "componentType" : 5126,
            "count" : 13433,
            "type" : "VEC2"
        },
        {
            "bufferView" : 20,
            "componentType" : 5123,
            "count" : 13437,
            "type" : "SCALAR"
        },
        {
            "bufferView" : 21,
            "componentType" : 5126,
            "count" : 1668,
            "max" : [
                0.24855852127075195,
                0.4579527974128723,
                0.18613378703594208
            ],
            "min" : [
                0.21849122643470764,
                0.44859206676483154,
                -0.17801904678344727
            ],
            "type" : "VEC3"
        },
        {
            "bufferView" : 22,
            "componentType" : 5126,
            "count" : 1668,
            "type" : "VEC2"
        }
    ],
    "bufferViews" : [
        {
            "buffer" : 0,
            "byteLength" : 14472,
            "byteOffset" : 0,
            "target" : 34962
        },
        {
            "buffer" : 0,
            "byteLength" : 9648,
            "byteOffset" : 14472,
            "target" : 34962
        },
        {
            "buffer" : 0,
            "byteLength" : 2424,
            "byteOffset" : 24120,
            "target" : 34963
        },
        {
            "buffer" : 0,
            "byteLength" : 279648,
            "byteOffset" : 26544,
            "target" : 34962
        },
        {
            "buffer" : 0,
            "byteLength" : 186432,
            "byteOffset" : 306192,
            "target" : 34962
        },
        {
            "buffer" : 0,
            "byteLength" : 46608,
            "byteOffset" : 492624,
            "target" : 34963
        },
        {
            "buffer" : 0,
            "byteLength" : 129276,
            "byteOffset" : 539232,
            "target" : 34962
        },
        {
            "buffer" : 0,
            "byteLength" : 86184,
            "byteOffset" : 668508,
            "target" : 34962
        },
        {
            "buffer" : 0,
            "byteLength" : 21546,
            "byteOffset" : 754692,
            "target" : 34963
        },
        {
            "buffer" : 0,
            "byteLength" : 61776,
            "byteOffset" : 776240,
            "target" : 34962
        },
        {
            "buffer" : 0,
            "byteLength" : 41184,
            "byteOffset" : 838016,
            "target" : 34962
        },
        {
            "buffer" : 0,
            "byteLength" : 10296,
            "byteOffset" : 879200,
            "target" : 34963
        },
        {
            "buffer" : 0,
            "byteLength" : 20016,
            "byteOffset" : 889496,
            "target" : 34962
        },
        {
            "buffer" : 0,
            "byteLength" : 13344,
            "byteOffset" : 909512,
            "target" : 34962
        },
        {
            "buffer" : 0,
            "byteLength" : 3336,
            "byteOffset" : 922856,
            "target" : 34963
        },
        {
            "buffer" : 0,
            "byteLength" : 50868,
            "byteOffset" : 926192,
            "target" : 34962
        },
        {
            "buffer" : 0,
            "byteLength" : 33912,
            "byteOffset" : 977060,
            "target" : 34962
        },
        {
            "buffer" : 0,
            "byteLength" : 8478,
            "byteOffset" : 1010972,
            "target" : 34963
        },
        {
            "buffer" : 0,
            "byteLength" : 161196,
            "byteOffset" : 1019452,
            "target" : 34962
        },
        {
            "buffer" : 0,
            "byteLength" : 107464,
            "byteOffset" : 1180648,
            "target" : 34962
        },
        {
            "buffer" : 0,
            "byteLength" : 26874,
            "byteOffset" : 1288112,
            "target" : 34963
        },
        {
            "buffer" : 0,
            "byteLength" : 20016,
            "byteOffset" : 1314988,
            "target" : 34962
        },
        {
            "buffer" : 0,
            "byteLength" : 13344,
            "byteOffset" : 1335004,
            "target" : 34962
        }
    ],
    "buffers" : [
        {
            "byteLength" : 1348348,
            "uri" : "data:application/octet-stream;base64,"
        }
    ]
}
