{
    "asset" : {
        "generator" : "Khronos glTF Blender I/O v3.3.27",
        "version" : "2.0"
    },
    "scene" : 0,
    "scenes" : [
        {
            "name" : "Scene",
            "nodes" : [
                0,
                1,
                2,
                3,
                4,
                5,
                6
            ]
        }
    ],
    "nodes" : [
        {
            "mesh" : 0,
            "name" : "Mesh.001",
            "rotation" : [
                0,
                -0.7071068286895752,
                0,
                0.7071067094802856
            ]
        },
        {
            "mesh" : 1,
            "name" : "Mesh.002",
            "rotation" : [
                0,
                -0.7071068286895752,
                0,
                0.7071067094802856
            ]
        },
        {
            "mesh" : 2,
            "name" : "Handle.001",
            "rotation" : [
                0,
                -0.7071068286895752,
                0,
                0.7071067094802856
            ]
        },
        {
            "mesh" : 3,
            "name" : "Mesh.003",
            "rotation" : [
                0,
                -0.7071068286895752,
                0,
                0.7071067094802856
            ]
        },
        {
            "mesh" : 4,
            "name" : "Handle",
            "rotation" : [
                0,
                -0.7071068286895752,
                0,
                0.7071067094802856
            ]
        },
        {
            "mesh" : 5,
            "name" : "Mesh",
            "rotation" : [
                0,
                -0.7071068286895752,
                0,
                0.7071067094802856
            ],
            "scale" : [
                1,
                0.8876024484634399,
                1
            ],
            "translation" : [
                0,
                0.26481327414512634,
                -0.0025415271520614624
            ]
        },
        {
            "mesh" : 6,
            "name" : "Basin",
            "rotation" : [
                0.7071068286895752,
                0,
                0,
                0.7071067094802856
            ]
        }
    ],
    "materials" : [
        {
            "doubleSided" : true,
            "name" : "Gatesby",
            "pbrMetallicRoughness" : {
                "baseColorFactor" : [
                    0.800000011920929,
                    0.800000011920929,
                    0.800000011920929,
                    1
                ],
                "metallicFactor" : 0.26424869894981384,
                "roughnessFactor" : 0.5
            }
        },
        {
            "doubleSided" : true,
            "name" : "Handle",
            "pbrMetallicRoughness" : {
                "metallicFactor" : 0,
                "roughnessFactor" : 0.5
            }
        },
        {
            "doubleSided" : true,
            "name" : "Material.001",
            "pbrMetallicRoughness" : {
                "baseColorFactor" : [
                    0.800000011920929,
                    0.800000011920929,
                    0.800000011920929,
                    1
                ],
                "roughnessFactor" : 0
            }
        },
        {
            "doubleSided" : true,
            "name" : "Default OBJ",
            "pbrMetallicRoughness" : {
                "baseColorFactor" : [
                    0.800000011920929,
                    0.800000011920929,
                    0.800000011920929,
                    1
                ],
                "metallicFactor" : 0,
                "roughnessFactor" : 0.5
            }
        }
    ],
    "meshes" : [
        {
            "name" : "PJH_GATESBY_600MM_BASIN_UNIT_WALL_HUNG_GREY_GLOSS_AR",
            "primitives" : [
                {
                    "attributes" : {
                        "POSITION" : 0,
                        "TEXCOORD_0" : 1
                    },
                    "indices" : 2,
                    "material" : 0
                }
            ]
        },
        {
            "name" : "PJH_GATESBY_600MM_BASIN_UNIT_WALL_HUNG_GREY_GLOSS_AR.001",
            "primitives" : [
                {
                    "attributes" : {
                        "POSITION" : 3,
                        "TEXCOORD_0" : 4
                    },
                    "indices" : 5,
                    "material" : 1
                },
                {
                    "attributes" : {
                        "POSITION" : 6,
                        "TEXCOORD_0" : 7
                    },
                    "indices" : 8,
                    "material" : 2
                }
            ]
        },
        {
            "name" : "PJH_GATESBY_600MM_BASIN_UNIT_WALL_HUNG_GREY_GLOSS_AR.002",
            "primitives" : [
                {
                    "attributes" : {
                        "POSITION" : 9,
                        "TEXCOORD_0" : 10
                    },
                    "indices" : 11,
                    "material" : 1
                }
            ]
        },
        {
            "name" : "PJH_GATESBY_600MM_BASIN_UNIT_WALL_HUNG_GREY_GLOSS_AR.007",
            "primitives" : [
                {
                    "attributes" : {
                        "POSITION" : 12,
                        "TEXCOORD_0" : 13
                    },
                    "indices" : 14,
                    "material" : 0
                }
            ]
        },
        {
            "name" : "PJH_GATESBY_600MM_BASIN_UNIT_WALL_HUNG_GREY_GLOSS_AR.009",
            "primitives" : [
                {
                    "attributes" : {
                        "POSITION" : 15,
                        "TEXCOORD_0" : 16
                    },
                    "indices" : 11,
                    "material" : 1
                }
            ]
        },
        {
            "name" : "PJH_GATESBY_600MM_BASIN_UNIT_WALL_HUNG_GREY_GLOSS_AR.005",
            "primitives" : [
                {
                    "attributes" : {
                        "POSITION" : 17,
                        "TEXCOORD_0" : 18
                    },
                    "indices" : 19,
                    "material" : 0
                }
            ]
        },
        {
            "name" : "Gatesby basin Remesh",
            "primitives" : [
                {
                    "attributes" : {
                        "POSITION" : 20
                    },
                    "indices" : 21,
                    "material" : 3
                }
            ]
        }
    ],
    "accessors" : [
        {
            "bufferView" : 0,
            "componentType" : 5126,
            "count" : 1206,
            "max" : [
                0.20704466104507446,
                0.4978930652141571,
                0.30545574426651
            ],
            "min" : [
                -0.24167820811271667,
                -0.0005724143702536821,
                -0.29645973443984985
            ],
            "type" : "VEC3"
        },
        {
            "bufferView" : 1,
            "componentType" : 5126,
            "count" : 1206,
            "type" : "VEC2"
        },
        {
            "bufferView" : 2,
            "componentType" : 5123,
            "count" : 1212,
            "type" : "SCALAR"
        },
        {
            "bufferView" : 3,
            "componentType" : 5126,
            "count" : 576,
            "max" : [
                0.21852077543735504,
                0.4983532726764679,
                0.30545574426651
            ],
            "min" : [
                -0.24167820811271667,
                0.41995567083358765,
                -0.29645973443984985
            ],
            "type" : "VEC3"
        },
        {
            "bufferView" : 4,
            "componentType" : 5126,
            "count" : 576,
            "type" : "VEC2"
        },
        {
            "bufferView" : 5,
            "componentType" : 5123,
            "count" : 2358,
            "type" : "SCALAR"
        },
        {
            "bufferView" : 6,
            "componentType" : 5126,
            "count" : 157,
            "max" : [
                -0.10551968961954117,
                0.4914417266845703,
                0.025297842919826508
            ],
            "min" : [
                -0.11250928789377213,
                0.4759030044078827,
                -0.02649824321269989
            ],
            "type" : "VEC3"
        },
        {
            "bufferView" : 7,
            "componentType" : 5126,
            "count" : 157,
            "type" : "VEC2"
        },
        {
            "bufferView" : 8,
            "componentType" : 5123,
            "count" : 684,
            "type" : "SCALAR"
        },
        {
            "bufferView" : 9,
            "componentType" : 5126,
            "count" : 1668,
            "max" : [
                0.24855852127075195,
                0.2078983187675476,
                0.18613378703594208
            ],
            "min" : [
                0.21849122643470764,
                0.19853755831718445,
                -0.17801904678344727
            ],
            "type" : "VEC3"
        },
        {
            "bufferView" : 10,
            "componentType" : 5126,
            "count" : 1668,
            "type" : "VEC2"
        },
        {
            "bufferView" : 11,
            "componentType" : 5123,
            "count" : 1668,
            "type" : "SCALAR"
        },
        {
            "bufferView" : 12,
            "componentType" : 5126,
            "count" : 15921,
            "max" : [
                0.21852077543735504,
                0.2625424861907959,
                0.30508172512054443
            ],
            "min" : [
                -0.19350986182689667,
                -0.017669677734375,
                -0.29608574509620667
            ],
            "type" : "VEC3"
        },
        {
            "bufferView" : 13,
            "componentType" : 5126,
            "count" : 15921,
            "type" : "VEC2"
        },
        {
            "bufferView" : 14,
            "componentType" : 5123,
            "count" : 15921,
            "type" : "SCALAR"
        },
        {
            "bufferView" : 15,
            "componentType" : 5126,
            "count" : 1668,
            "max" : [
                0.24855852127075195,
                0.4579527974128723,
                0.18613378703594208
            ],
            "min" : [
                0.21849122643470764,
                0.44859206676483154,
                -0.17801904678344727
            ],
            "type" : "VEC3"
        },
        {
            "bufferView" : 16,
            "componentType" : 5126,
            "count" : 1668,
            "type" : "VEC2"
        },
        {
            "bufferView" : 17,
            "componentType" : 5126,
            "count" : 17672,
            "max" : [
                0.21852077543735504,
                0.2625424861907959,
                0.29290443658828735
            ],
            "min" : [
                -0.1387186199426651,
                -0.0005735587910749018,
                -0.2839083671569824
            ],
            "type" : "VEC3"
        },
        {
            "bufferView" : 18,
            "componentType" : 5126,
            "count" : 17672,
            "type" : "VEC2"
        },
        {
            "bufferView" : 19,
            "componentType" : 5123,
            "count" : 17676,
            "type" : "SCALAR"
        },
        {
            "bufferView" : 20,
            "componentType" : 5126,
            "count" : 10211,
            "max" : [
                0.3054479956626892,
                0.22529299557209015,
                -0.35788199305534363
            ],
            "min" : [
                -0.3057200014591217,
                -0.24855999648571014,
                -0.5160639882087708
            ],
            "type" : "VEC3"
        },
        {
            "bufferView" : 21,
            "componentType" : 5123,
            "count" : 58488,
            "type" : "SCALAR"
        }
    ],
    "bufferViews" : [
        {
            "buffer" : 0,
            "byteLength" : 14472,
            "byteOffset" : 0,
            "target" : 34962
        },
        {
            "buffer" : 0,
            "byteLength" : 9648,
            "byteOffset" : 14472,
            "target" : 34962
        },
        {
            "buffer" : 0,
            "byteLength" : 2424,
            "byteOffset" : 24120,
            "target" : 34963
        },
        {
            "buffer" : 0,
            "byteLength" : 6912,
            "byteOffset" : 26544,
            "target" : 34962
        },
        {
            "buffer" : 0,
            "byteLength" : 4608,
            "byteOffset" : 33456,
            "target" : 34962
        },
        {
            "buffer" : 0,
            "byteLength" : 4716,
            "byteOffset" : 38064,
            "target" : 34963
        },
        {
            "buffer" : 0,
            "byteLength" : 1884,
            "byteOffset" : 42780,
            "target" : 34962
        },
        {
            "buffer" : 0,
            "byteLength" : 1256,
            "byteOffset" : 44664,
            "target" : 34962
        },
        {
            "buffer" : 0,
            "byteLength" : 1368,
            "byteOffset" : 45920,
            "target" : 34963
        },
        {
            "buffer" : 0,
            "byteLength" : 20016,
            "byteOffset" : 47288,
            "target" : 34962
        },
        {
            "buffer" : 0,
            "byteLength" : 13344,
            "byteOffset" : 67304,
            "target" : 34962
        },
        {
            "buffer" : 0,
            "byteLength" : 3336,
            "byteOffset" : 80648,
            "target" : 34963
        },
        {
            "buffer" : 0,
            "byteLength" : 191052,
            "byteOffset" : 83984,
            "target" : 34962
        },
        {
            "buffer" : 0,
            "byteLength" : 127368,
            "byteOffset" : 275036,
            "target" : 34962
        },
        {
            "buffer" : 0,
            "byteLength" : 31842,
            "byteOffset" : 402404,
            "target" : 34963
        },
        {
            "buffer" : 0,
            "byteLength" : 20016,
            "byteOffset" : 434248,
            "target" : 34962
        },
        {
            "buffer" : 0,
            "byteLength" : 13344,
            "byteOffset" : 454264,
            "target" : 34962
        },
        {
            "buffer" : 0,
            "byteLength" : 212064,
            "byteOffset" : 467608,
            "target" : 34962
        },
        {
            "buffer" : 0,
            "byteLength" : 141376,
            "byteOffset" : 679672,
            "target" : 34962
        },
        {
            "buffer" : 0,
            "byteLength" : 35352,
            "byteOffset" : 821048,
            "target" : 34963
        },
        {
            "buffer" : 0,
            "byteLength" : 122532,
            "byteOffset" : 856400,
            "target" : 34962
        },
        {
            "buffer" : 0,
            "byteLength" : 116976,
            "byteOffset" : 978932,
            "target" : 34963
        }
    ],
    "buffers" : [
        {
            "byteLength" : 1095908,
            "uri" : "data:application/octet-stream;base64,"
        }
    ]
}
